<svg width="425" height="280" viewBox="0 0 425 280" fill="none" xmlns="http://www.w3.org/2000/svg">
<rect width="425" height="280" fill="white"/>
<rect width="425" height="280" fill="#242424"/>
<path d="M22.4276 203.954C22.3479 201.684 22.9784 199.885 24.3191 198.554C25.6766 197.205 27.6285 196.486 30.175 196.397C34.0899 196.259 36.6723 197.686 37.9221 200.677C38.0741 201.054 38.0934 201.356 37.9801 201.586C37.8834 201.797 37.6467 201.971 37.2699 202.105L34.5243 203.19C34.1301 203.326 33.8276 203.354 33.6167 203.274C33.4225 203.177 33.2491 202.932 33.0965 202.538C32.6065 201.428 31.686 200.897 30.3348 200.944C29.3301 200.979 28.6105 201.23 28.1759 201.696C27.7407 202.145 27.5393 202.829 27.5716 203.747L27.7378 208.476C27.77 209.394 28.0193 210.07 28.4855 210.505C28.9511 210.922 29.6863 211.113 30.691 211.078C32.0768 211.029 32.9578 210.434 33.334 209.294C33.4752 208.873 33.6396 208.615 33.8272 208.522C34.014 208.411 34.3091 208.418 34.7124 208.543L37.5274 209.433C37.9128 209.541 38.1614 209.705 38.2732 209.927C38.4018 210.13 38.4035 210.425 38.2783 210.811C37.2416 213.883 34.7657 215.487 30.8508 215.625C28.3044 215.715 26.3071 215.143 24.8589 213.91C23.4274 212.66 22.6718 210.9 22.592 208.631L22.4276 203.954ZM39.3527 203.359C39.273 201.09 39.9035 199.29 41.2442 197.959C42.6017 196.611 44.5536 195.892 47.1001 195.802C49.6292 195.713 51.6095 196.294 53.0409 197.544C54.4891 198.777 55.2531 200.528 55.3329 202.797L55.4973 207.474C55.577 209.744 54.9382 211.552 53.5807 212.901C52.2399 214.232 50.305 214.941 47.7759 215.03C45.2295 215.12 43.2322 214.548 41.784 213.316C40.3525 212.065 39.5969 210.305 39.5171 208.036L39.3527 203.359ZM50.1798 202.744C50.1512 201.93 49.8784 201.324 49.3614 200.926C48.8612 200.51 48.1607 200.318 47.2599 200.349C46.3418 200.381 45.6392 200.623 45.152 201.074C44.6816 201.506 44.4607 202.13 44.4893 202.944L44.6702 208.089C44.6988 208.903 44.9632 209.518 45.4635 209.934C45.9805 210.332 46.698 210.515 47.6161 210.483C48.5169 210.451 49.2025 210.219 49.6729 209.786C50.16 209.336 50.3893 208.703 50.3607 207.889L50.1798 202.744ZM71.7316 200.348C71.7937 202.115 71.1623 203.394 69.8373 204.187C70.8584 204.619 71.5723 205.192 71.979 205.906C72.3851 206.603 72.6064 207.471 72.6429 208.511C72.775 212.27 70.3899 214.235 65.4876 214.408C61.0877 214.562 58.2628 213.144 57.0129 210.153C56.861 209.776 56.8333 209.483 56.9299 209.271C57.0433 209.042 57.2884 208.86 57.6652 208.725L60.1796 207.726C60.5732 207.573 60.8671 207.546 61.0613 207.643C61.2728 207.74 61.4549 207.985 61.6074 208.378C62.0974 209.488 63.1999 210.013 64.9148 209.953C65.7809 209.923 66.383 209.78 66.7209 209.525C67.0761 209.27 67.2443 208.874 67.2255 208.337C67.2066 207.8 67.063 207.415 66.7946 207.181C66.5262 206.948 66.1149 206.841 65.5606 206.86L63.0921 206.947C62.6763 206.962 62.3791 206.894 62.2004 206.744C62.0384 206.577 61.9504 206.294 61.9364 205.895L61.8606 203.738C61.846 203.323 61.9139 203.034 62.0643 202.873C62.2315 202.693 62.5229 202.596 62.9387 202.582L64.9914 202.51C65.5284 202.491 65.9229 202.364 66.1748 202.13C66.4267 201.896 66.5438 201.527 66.5262 201.025C66.4927 200.072 65.8004 199.619 64.4492 199.667C62.8382 199.724 61.8359 200.323 61.4425 201.464C61.3006 201.868 61.1275 202.125 60.9233 202.236C60.7364 202.347 60.45 202.34 60.064 202.215L57.4596 201.396C56.7409 201.178 56.4992 200.718 56.7347 200.016C57.7368 196.946 60.4205 195.334 64.7858 195.18C69.2897 195.022 71.605 196.744 71.7316 200.348ZM89.469 194.703C89.8848 194.688 90.1736 194.765 90.3356 194.933C90.5143 195.083 90.6107 195.357 90.6247 195.755L91.075 208.565L92.3222 208.521C92.7379 208.507 93.0265 208.575 93.1879 208.725C93.3493 208.876 93.437 209.15 93.451 209.548L93.6747 215.914C93.6887 216.313 93.6205 216.593 93.4701 216.754C93.3203 216.933 93.0375 217.029 92.6218 217.044L89.7635 217.145C89.3478 217.159 89.0502 217.083 88.8709 216.916C88.7095 216.765 88.6219 216.491 88.6078 216.093L88.5065 213.208L78.9963 213.543L79.0977 216.427C79.1117 216.825 79.0349 217.105 78.8671 217.267C78.7173 217.446 78.4432 217.542 78.0448 217.556L75.1605 217.658C74.7621 217.672 74.4732 217.595 74.2939 217.428C74.1325 217.278 74.0449 217.003 74.0309 216.605L73.8071 210.239C73.7931 209.84 73.8613 209.56 74.0117 209.399C74.1795 209.237 74.4626 209.149 74.861 209.135L75.4326 209.115C76.1215 208.484 76.6129 207.66 76.9067 206.644C77.2173 205.609 77.3381 204.114 77.2693 202.156L77.0611 196.232C77.0471 195.833 77.1153 195.554 77.2657 195.392C77.4328 195.213 77.7243 195.116 78.14 195.101L89.469 194.703ZM82.3093 201.953C82.411 204.846 82.0849 207.164 81.331 208.908L85.9301 208.746L85.6014 199.392L82.2234 199.511L82.3093 201.953ZM111.726 211.325C112.011 212.027 111.772 212.391 111.01 212.417L108.204 212.516C107.546 212.539 107.075 212.478 106.793 212.331C106.527 212.185 106.335 211.905 106.217 211.493L105.553 209.643L99.9409 209.841L99.409 211.732C99.285 212.153 99.0959 212.446 98.8415 212.611C98.6045 212.775 98.1741 212.868 97.5505 212.89L94.8222 212.986C94.0946 213.012 93.8483 212.665 94.0832 211.946L99.4805 195.262C99.5889 194.894 99.7363 194.646 99.9226 194.518C100.109 194.39 100.401 194.319 100.8 194.305L103.762 194.201C104.143 194.187 104.431 194.238 104.626 194.352C104.838 194.466 105.01 194.686 105.143 195.011L111.726 211.325ZM103.172 202.599C102.998 202.084 102.849 201.526 102.723 200.923C102.615 200.32 102.547 199.846 102.517 199.5L102.473 198.981L102.213 198.99C102.274 200.237 102.152 201.446 101.846 202.619L100.993 205.719L104.241 205.605L103.172 202.599ZM126.769 193.366C127.168 193.352 127.448 193.429 127.61 193.597C127.788 193.746 127.885 194.029 127.9 194.445L128.471 210.711C128.485 211.109 128.409 211.398 128.242 211.578C128.091 211.739 127.817 211.827 127.418 211.841L124.456 211.945C124.058 211.959 123.769 211.891 123.591 211.741C123.429 211.573 123.341 211.29 123.327 210.892L123.117 204.915L118.076 205.093L118.286 211.069C118.3 211.467 118.232 211.756 118.082 211.935C117.932 212.096 117.648 212.184 117.233 212.199L114.297 212.302C113.881 212.316 113.584 212.249 113.405 212.099C113.243 211.931 113.155 211.648 113.141 211.25L112.569 194.984C112.555 194.568 112.622 194.279 112.773 194.118C112.94 193.939 113.231 193.842 113.647 193.827L116.583 193.724C116.999 193.709 117.288 193.786 117.45 193.954C117.611 194.104 117.699 194.387 117.714 194.803L117.916 200.545L122.957 200.368L122.755 194.626C122.74 194.21 122.808 193.921 122.959 193.76C123.126 193.581 123.409 193.484 123.807 193.47L126.769 193.366ZM145.073 192.723C145.489 192.708 145.778 192.785 145.94 192.952C146.118 193.102 146.215 193.385 146.23 193.801L146.801 210.067C146.815 210.465 146.739 210.754 146.572 210.933C146.421 211.095 146.138 211.183 145.722 211.197L142.812 211.3C142.396 211.314 142.099 211.247 141.92 211.097C141.758 210.929 141.67 210.637 141.656 210.221L141.5 205.804C141.486 205.388 141.473 205.025 141.462 204.713C141.468 204.383 141.482 204.053 141.505 203.723C141.528 203.392 141.545 203.14 141.557 202.966C141.567 202.775 141.601 202.505 141.658 202.156C141.732 201.79 141.784 201.528 141.813 201.371C141.859 201.213 141.935 200.889 142.039 200.4C142.143 199.911 142.217 199.553 142.261 199.325L142.053 199.333C141.615 200.684 141.26 201.685 140.988 202.336C140.734 202.987 140.337 203.799 139.799 204.771L136.428 211.004C136.249 211.357 135.9 211.542 135.381 211.561L132.237 211.671C131.821 211.686 131.524 211.618 131.345 211.468C131.183 211.301 131.095 211.018 131.081 210.619L130.509 194.353C130.495 193.955 130.563 193.675 130.714 193.514C130.881 193.334 131.172 193.237 131.588 193.223L134.524 193.119C134.94 193.105 135.229 193.181 135.391 193.349C135.552 193.5 135.64 193.774 135.654 194.172L135.81 198.616C135.86 200.019 135.837 201.095 135.742 201.844C135.664 202.593 135.441 203.667 135.074 205.067L135.256 205.061C136.108 202.655 136.876 200.824 137.561 199.569L140.882 193.39C141.095 193.036 141.453 192.85 141.955 192.832L145.073 192.723ZM160.796 192.196C161.212 192.181 161.501 192.258 161.663 192.426C161.842 192.576 161.938 192.85 161.952 193.248L162.034 195.587C162.049 196.002 161.972 196.3 161.805 196.479C161.655 196.641 161.372 196.729 160.956 196.743L154.096 196.984L154.178 199.297L159.66 199.104C160.076 199.09 160.365 199.166 160.527 199.334C160.705 199.484 160.802 199.758 160.816 200.156L160.898 202.495C160.913 202.911 160.836 203.208 160.669 203.387C160.519 203.549 160.236 203.637 159.82 203.651L154.337 203.844L154.425 206.339L161.519 206.089C161.917 206.075 162.197 206.143 162.358 206.294C162.537 206.444 162.634 206.726 162.648 207.142L162.731 209.507C162.745 209.905 162.669 210.194 162.502 210.373C162.351 210.535 162.077 210.622 161.679 210.636L150.557 211.027C150.142 211.042 149.844 210.974 149.666 210.824C149.504 210.657 149.416 210.374 149.402 209.975L148.83 193.709C148.816 193.311 148.884 193.031 149.035 192.87C149.202 192.69 149.493 192.593 149.909 192.579L160.796 192.196ZM168.537 198.818C168.457 196.549 169.087 194.749 170.428 193.418C171.786 192.07 173.738 191.351 176.284 191.261C180.199 191.124 182.781 192.551 184.031 195.542C184.183 195.918 184.202 196.221 184.089 196.45C183.992 196.662 183.756 196.835 183.379 196.97L180.633 198.055C180.239 198.19 179.937 198.218 179.726 198.139C179.531 198.042 179.358 197.796 179.205 197.403C178.716 196.292 177.795 195.761 176.444 195.809C175.439 195.844 174.719 196.095 174.285 196.561C173.85 197.01 173.648 197.693 173.681 198.611L173.847 203.34C173.879 204.259 174.128 204.935 174.594 205.369C175.06 205.787 175.795 205.978 176.8 205.942C178.186 205.894 179.067 205.299 179.443 204.158C179.584 203.737 179.749 203.48 179.936 203.387C180.123 203.276 180.418 203.283 180.821 203.408L183.636 204.297C184.022 204.405 184.27 204.57 184.382 204.791C184.511 204.995 184.512 205.29 184.387 205.676C183.351 208.747 180.875 210.352 176.96 210.49C174.413 210.579 172.416 210.008 170.968 208.775C169.536 207.524 168.781 205.765 168.701 203.495L168.537 198.818ZM202.746 208.126C203.031 208.827 202.792 209.191 202.03 209.218L199.224 209.317C198.566 209.34 198.095 209.278 197.813 209.132C197.547 208.985 197.355 208.706 197.237 208.294L196.573 206.444L190.961 206.641L190.429 208.533C190.305 208.954 190.116 209.247 189.861 209.412C189.624 209.576 189.194 209.669 188.57 209.691L185.842 209.787C185.115 209.813 184.868 209.466 185.103 208.746L190.5 192.063C190.609 191.694 190.756 191.446 190.943 191.319C191.129 191.191 191.421 191.12 191.82 191.106L194.782 191.001C195.163 190.988 195.451 191.039 195.646 191.153C195.858 191.267 196.03 191.487 196.163 191.811L202.746 208.126ZM194.192 199.399C194.018 198.885 193.869 198.327 193.743 197.724C193.635 197.121 193.567 196.646 193.537 196.3L193.493 195.782L193.233 195.791C193.294 197.037 193.172 198.247 192.866 199.42L192.013 202.52L195.261 202.406L194.192 199.399ZM216.641 186.357C215.912 188.325 214.196 189.356 211.494 189.451C208.826 189.545 207.06 188.636 206.195 186.724C206.082 186.468 206.058 186.278 206.123 186.154C206.205 186.012 206.391 185.876 206.681 185.744L208.606 185C208.914 184.885 209.138 184.851 209.279 184.898C209.436 184.928 209.588 185.061 209.735 185.299C210.12 185.875 210.667 186.15 211.377 186.126C212.07 186.101 212.597 185.788 212.957 185.185C213.104 184.937 213.238 184.794 213.358 184.755C213.478 184.699 213.686 184.709 213.984 184.785L216.087 185.414C216.385 185.507 216.571 185.622 216.646 185.758C216.737 185.894 216.735 186.093 216.641 186.357ZM218.153 190.154C218.569 190.139 218.857 190.216 219.019 190.384C219.198 190.534 219.295 190.816 219.309 191.232L219.881 207.498C219.895 207.896 219.819 208.185 219.651 208.365C219.501 208.526 219.218 208.614 218.802 208.629L215.892 208.731C215.476 208.745 215.179 208.678 215 208.528C214.838 208.36 214.75 208.069 214.735 207.653L214.58 203.236C214.566 202.82 214.553 202.456 214.542 202.144C214.548 201.815 214.562 201.484 214.585 201.154C214.608 200.824 214.625 200.572 214.637 200.398C214.647 200.207 214.681 199.937 214.738 199.588C214.812 199.221 214.863 198.959 214.893 198.802C214.939 198.644 215.014 198.321 215.119 197.831C215.223 197.342 215.297 196.984 215.341 196.757L215.133 196.764C214.695 198.115 214.34 199.116 214.068 199.767C213.813 200.418 213.417 201.23 212.879 202.203L209.508 208.435C209.329 208.788 208.98 208.974 208.461 208.992L205.317 209.103C204.901 209.117 204.604 209.05 204.425 208.9C204.263 208.732 204.175 208.449 204.161 208.051L203.589 191.785C203.575 191.386 203.643 191.106 203.794 190.945C203.961 190.766 204.252 190.669 204.668 190.654L207.604 190.551C208.02 190.536 208.309 190.613 208.471 190.78C208.632 190.931 208.72 191.205 208.734 191.604L208.89 196.047C208.939 197.45 208.917 198.526 208.821 199.275C208.744 200.024 208.521 201.098 208.154 202.499L208.336 202.492C209.188 200.086 209.956 198.256 210.641 197L213.962 190.822C214.175 190.467 214.532 190.281 215.035 190.264L218.153 190.154ZM234.837 189.594C235.253 189.579 235.542 189.656 235.704 189.823C235.883 189.973 235.979 190.247 235.993 190.646L236.075 192.984C236.09 193.4 236.014 193.697 235.847 193.877C235.696 194.038 235.413 194.126 234.997 194.141L231.152 194.276L231.602 207.086C231.616 207.484 231.539 207.773 231.372 207.953C231.222 208.114 230.939 208.202 230.523 208.217L227.587 208.32C227.171 208.334 226.882 208.267 226.721 208.116C226.559 207.948 226.471 207.665 226.457 207.267L226.007 194.457L222.135 194.593C221.72 194.607 221.431 194.54 221.27 194.389C221.108 194.221 221.019 193.93 221.005 193.514L220.922 191.175C220.908 190.777 220.977 190.497 221.127 190.336C221.277 190.157 221.56 190.06 221.975 190.046L234.837 189.594ZM254.537 206.306C254.821 207.007 254.583 207.371 253.82 207.398L251.014 207.496C250.356 207.52 249.885 207.458 249.603 207.312C249.338 207.165 249.146 206.886 249.027 206.474L248.364 204.624L242.751 204.821L242.219 206.713C242.095 207.133 241.906 207.426 241.652 207.591C241.415 207.756 240.984 207.849 240.361 207.871L237.632 207.967C236.905 207.992 236.659 207.645 236.893 206.926L242.291 190.242C242.399 189.874 242.547 189.626 242.733 189.498C242.919 189.37 243.211 189.299 243.61 189.285L246.572 189.181C246.953 189.168 247.241 189.218 247.436 189.333C247.648 189.447 247.821 189.666 247.953 189.991L254.537 206.306ZM245.983 197.579C245.809 197.065 245.659 196.506 245.534 195.904C245.426 195.3 245.357 194.826 245.327 194.48L245.283 193.961L245.023 193.97C245.085 195.217 244.962 196.427 244.657 197.6L243.803 200.699L247.051 200.585L245.983 197.579Z" fill="#D1D1D1"/>
<path d="M60.78 39.785C61.82 39.785 62.535 40.0017 62.925 40.435C63.3583 40.825 63.575 41.54 63.575 42.58V83.27C63.575 84.2667 63.3583 84.9817 62.925 85.415C62.535 85.805 61.82 86 60.78 86H53.5C52.46 86 51.7233 85.805 51.29 85.415C50.9 84.9817 50.705 84.245 50.705 83.205V72.155C50.705 71.115 50.705 70.205 50.705 69.425C50.7483 68.6017 50.8133 67.7783 50.9 66.955C50.9867 66.1317 51.0517 65.5033 51.095 65.07C51.1383 64.5933 51.2467 63.9217 51.42 63.055C51.6367 62.145 51.7883 61.495 51.875 61.105C52.005 60.715 52.2217 59.9133 52.525 58.7C52.8283 57.4867 53.045 56.5983 53.175 56.035H52.655C51.4417 59.3717 50.4667 61.8417 49.73 63.445C49.0367 65.0483 47.975 67.0417 46.545 69.425L37.575 84.7C37.0983 85.5667 36.21 86 34.91 86H27.045C26.005 86 25.2683 85.805 24.835 85.415C24.445 84.9817 24.25 84.2667 24.25 83.27V42.58C24.25 41.5833 24.445 40.89 24.835 40.5C25.2683 40.0667 26.005 39.85 27.045 39.85H34.39C35.43 39.85 36.145 40.0667 36.535 40.5C36.925 40.89 37.12 41.5833 37.12 42.58V53.695C37.12 57.205 36.9683 59.8917 36.665 61.755C36.405 63.6183 35.755 66.2833 34.715 69.75H35.17C37.51 63.8133 39.59 59.3067 41.41 56.23L50.25 41.085C50.8133 40.2183 51.7233 39.785 52.98 39.785H60.78ZM105.83 52.395C105.83 56.815 104.14 59.9567 100.76 61.82C103.273 62.99 105.007 64.485 105.96 66.305C106.913 68.0817 107.39 70.27 107.39 72.87C107.39 82.2733 101.258 86.975 88.9951 86.975C77.9884 86.975 71.0551 83.1833 68.1951 75.6C67.8484 74.6467 67.8051 73.91 68.0651 73.39C68.3684 72.8267 68.9967 72.3933 69.9501 72.09L76.3201 69.815C77.3167 69.4683 78.0534 69.425 78.5301 69.685C79.0501 69.945 79.4834 70.5733 79.8301 71.57C80.9567 74.3867 83.6651 75.795 87.9551 75.795C90.1217 75.795 91.6384 75.4917 92.5051 74.885C93.4151 74.2783 93.8701 73.3033 93.8701 71.96C93.8701 70.6167 93.5451 69.6417 92.8951 69.035C92.2451 68.4283 91.2267 68.125 89.8401 68.125H83.6651C82.6251 68.125 81.8884 67.93 81.4551 67.54C81.0651 67.1067 80.8701 66.3917 80.8701 65.395V60C80.8701 58.96 81.0651 58.245 81.4551 57.855C81.8884 57.4217 82.6251 57.205 83.6651 57.205H88.8001C90.1434 57.205 91.1401 56.9233 91.7901 56.36C92.4401 55.7967 92.7651 54.8867 92.7651 53.63C92.7651 51.2467 91.0751 50.055 87.6951 50.055C83.6651 50.055 81.1084 51.4633 80.0251 54.28C79.6351 55.2767 79.1801 55.905 78.6601 56.165C78.1834 56.425 77.4684 56.3817 76.5151 56.035L70.0801 53.76C68.3034 53.1533 67.7401 51.9833 68.3901 50.25C71.1634 42.6667 78.0101 38.875 88.9301 38.875C100.197 38.875 105.83 43.3817 105.83 52.395ZM147.977 39.85C149.667 39.85 150.122 40.76 149.342 42.58L132.182 83.595C131.749 84.5917 131.25 85.2417 130.687 85.545C130.124 85.8483 129.127 86 127.697 86H119.442C117.709 86 117.254 85.09 118.077 83.27L122.952 72.35L109.172 42.58C108.305 40.76 108.825 39.85 110.732 39.85H118.402C120.049 39.85 121.175 39.98 121.782 40.24C122.432 40.5 122.974 41.1717 123.407 42.255L129.712 56.685L135.692 42.255C136.082 41.1717 136.559 40.5 137.122 40.24C137.685 39.98 138.725 39.85 140.242 39.85H147.977ZM186.582 39.85C187.622 39.85 188.337 40.0667 188.727 40.5C189.117 40.89 189.312 41.5833 189.312 42.58V83.27C189.312 84.2667 189.117 84.9817 188.727 85.415C188.337 85.805 187.622 86 186.582 86H179.237C178.197 86 177.461 85.805 177.027 85.415C176.637 84.9817 176.442 84.2667 176.442 83.27V70.595C174.406 70.8983 172.196 71.05 169.812 71.05C163.529 71.05 158.936 69.555 156.032 66.565C153.129 63.5317 151.677 59.0033 151.677 52.98V42.58C151.677 41.5833 151.872 40.89 152.262 40.5C152.652 40.0667 153.367 39.85 154.407 39.85H161.752C162.792 39.85 163.507 40.0667 163.897 40.5C164.331 40.89 164.547 41.5833 164.547 42.58V52.98C164.547 56.9667 166.952 58.96 171.762 58.96C173.582 58.96 175.142 58.8083 176.442 58.505V42.58C176.442 41.5833 176.637 40.89 177.027 40.5C177.461 40.0667 178.197 39.85 179.237 39.85H186.582ZM225.921 39.85C226.961 39.85 227.676 40.0667 228.066 40.5C228.499 40.89 228.716 41.5833 228.716 42.58V48.43C228.716 49.47 228.499 50.2067 228.066 50.64C227.676 51.03 226.961 51.225 225.921 51.225H208.761V57.01H222.476C223.516 57.01 224.231 57.2267 224.621 57.66C225.054 58.05 225.271 58.7433 225.271 59.74V65.59C225.271 66.63 225.054 67.3667 224.621 67.8C224.231 68.19 223.516 68.385 222.476 68.385H208.761V74.625H226.506C227.502 74.625 228.196 74.82 228.586 75.21C229.019 75.6 229.236 76.315 229.236 77.355V83.27C229.236 84.2667 229.019 84.9817 228.586 85.415C228.196 85.805 227.502 86 226.506 86H198.686C197.646 86 196.909 85.805 196.476 85.415C196.086 84.9817 195.891 84.2667 195.891 83.27V42.58C195.891 41.5833 196.086 40.89 196.476 40.5C196.909 40.0667 197.646 39.85 198.686 39.85H225.921ZM269.724 39.785C270.72 39.785 271.414 40.0017 271.804 40.435C272.237 40.825 272.454 41.54 272.454 42.58V83.27C272.454 84.2667 272.237 84.9817 271.804 85.415C271.414 85.805 270.72 86 269.724 86H262.314C261.317 86 260.602 85.805 260.169 85.415C259.779 84.9817 259.584 84.2667 259.584 83.27V68.32H246.974V83.27C246.974 84.2667 246.779 84.9817 246.389 85.415C245.999 85.805 245.284 86 244.244 86H236.899C235.859 86 235.122 85.805 234.689 85.415C234.299 84.9817 234.104 84.2667 234.104 83.27V42.58C234.104 41.54 234.299 40.825 234.689 40.435C235.122 40.0017 235.859 39.785 236.899 39.785H244.244C245.284 39.785 245.999 40.0017 246.389 40.435C246.779 40.825 246.974 41.54 246.974 42.58V56.945H259.584V42.58C259.584 41.54 259.779 40.825 260.169 40.435C260.602 40.0017 261.317 39.785 262.314 39.785H269.724ZM315.511 39.785C316.551 39.785 317.266 40.0017 317.656 40.435C318.09 40.825 318.306 41.54 318.306 42.58V83.27C318.306 84.2667 318.09 84.9817 317.656 85.415C317.266 85.805 316.551 86 315.511 86H308.231C307.191 86 306.455 85.805 306.021 85.415C305.631 84.9817 305.436 84.245 305.436 83.205V72.155C305.436 71.115 305.436 70.205 305.436 69.425C305.48 68.6017 305.545 67.7783 305.631 66.955C305.718 66.1317 305.783 65.5033 305.826 65.07C305.87 64.5933 305.978 63.9217 306.151 63.055C306.368 62.145 306.52 61.495 306.606 61.105C306.736 60.715 306.953 59.9133 307.256 58.7C307.56 57.4867 307.776 56.5983 307.906 56.035H307.386C306.173 59.3717 305.198 61.8417 304.461 63.445C303.768 65.0483 302.706 67.0417 301.276 69.425L292.306 84.7C291.83 85.5667 290.941 86 289.641 86H281.776C280.736 86 280 85.805 279.566 85.415C279.176 84.9817 278.981 84.2667 278.981 83.27V42.58C278.981 41.5833 279.176 40.89 279.566 40.5C280 40.0667 280.736 39.85 281.776 39.85H289.121C290.161 39.85 290.876 40.0667 291.266 40.5C291.656 40.89 291.851 41.5833 291.851 42.58V53.695C291.851 57.205 291.7 59.8917 291.396 61.755C291.136 63.6183 290.486 66.2833 289.446 69.75H289.901C292.241 63.8133 294.321 59.3067 296.141 56.23L304.981 41.085C305.545 40.2183 306.455 39.785 307.711 39.785H315.511ZM354.842 39.85C355.882 39.85 356.597 40.0667 356.987 40.5C357.42 40.89 357.637 41.5833 357.637 42.58V48.43C357.637 49.47 357.42 50.2067 356.987 50.64C356.597 51.03 355.882 51.225 354.842 51.225H337.682V57.01H351.397C352.437 57.01 353.152 57.2267 353.542 57.66C353.975 58.05 354.192 58.7433 354.192 59.74V65.59C354.192 66.63 353.975 67.3667 353.542 67.8C353.152 68.19 352.437 68.385 351.397 68.385H337.682V74.625H355.427C356.423 74.625 357.117 74.82 357.507 75.21C357.94 75.6 358.157 76.315 358.157 77.355V83.27C358.157 84.2667 357.94 84.9817 357.507 85.415C357.117 85.805 356.423 86 355.427 86H327.607C326.567 86 325.83 85.805 325.397 85.415C325.007 84.9817 324.812 84.2667 324.812 83.27V42.58C324.812 41.5833 325.007 40.89 325.397 40.5C325.83 40.0667 326.567 39.85 327.607 39.85H354.842Z" fill="white"/>
<path d="M42.905 117.85C49.2317 117.85 54.1283 119.475 57.595 122.725C61.105 125.932 62.86 130.373 62.86 136.05V145.8C62.86 151.433 61.105 155.875 57.595 159.125C54.1283 162.375 49.2317 164 42.905 164H27.045C26.005 164 25.2683 163.805 24.835 163.415C24.445 162.982 24.25 162.267 24.25 161.27V120.58C24.25 119.583 24.445 118.89 24.835 118.5C25.2683 118.067 26.005 117.85 27.045 117.85H42.905ZM49.99 136.245C49.99 131.565 47.4767 129.225 42.45 129.225H37.12V152.625H42.45C47.4767 152.625 49.99 150.285 49.99 145.605V136.245ZM97.4893 117.785C98.4859 117.785 99.1793 118.002 99.5693 118.435C99.9593 118.825 100.154 119.518 100.154 120.515V147.945C100.154 153.362 98.6159 157.565 95.5393 160.555C92.5059 163.502 88.0859 164.975 82.2793 164.975C73.6993 164.975 68.0659 161.313 65.3793 153.99C64.7293 152.3 65.2926 151.13 67.0693 150.48L73.8293 148.075C74.7826 147.728 75.5193 147.663 76.0393 147.88C76.6026 148.097 77.0793 148.682 77.4693 149.635C78.5959 152.278 80.2859 153.6 82.5393 153.6C85.7026 153.6 87.2843 151.737 87.2843 148.01V120.515C87.2843 119.518 87.4793 118.825 87.8693 118.435C88.2593 118.002 88.9743 117.785 90.0143 117.785H97.4893ZM146.393 161.335C147.043 163.112 146.414 164 144.508 164H137.488C135.841 164 134.671 163.805 133.978 163.415C133.328 163.025 132.873 162.31 132.613 161.27L131.118 156.59H117.078L115.583 161.27C115.236 162.31 114.738 163.025 114.088 163.415C113.481 163.805 112.398 164 110.838 164H104.013C102.193 164 101.608 163.112 102.258 161.335L117.208 120.125C117.511 119.215 117.901 118.608 118.378 118.305C118.854 118.002 119.591 117.85 120.588 117.85H127.998C128.951 117.85 129.666 118.002 130.143 118.305C130.663 118.608 131.074 119.172 131.378 119.995L146.393 161.335ZM125.788 138.78C125.398 137.48 125.073 136.072 124.813 134.555C124.596 133.038 124.466 131.847 124.423 130.98L124.358 129.68H123.708C123.751 132.8 123.339 135.812 122.473 138.715L120.068 146.385H128.193L125.788 138.78ZM186.204 117.85C187.2 117.85 187.894 118.067 188.284 118.5C188.717 118.89 188.934 119.583 188.934 120.58V161.27C188.934 162.267 188.717 162.982 188.284 163.415C187.894 163.805 187.2 164 186.204 164H178.859C177.645 164 176.757 163.567 176.194 162.7L166.184 147.295C164.84 145.172 163.779 143.2 162.999 141.38C162.262 139.56 161.417 137.068 160.464 133.905H159.944C160.55 136.592 160.962 138.498 161.179 139.625C161.395 140.752 161.59 142.312 161.764 144.305C161.98 146.255 162.089 148.378 162.089 150.675V161.27C162.089 162.267 161.872 162.982 161.439 163.415C161.049 163.805 160.334 164 159.294 164H152.729C151.689 164 150.952 163.805 150.519 163.415C150.129 162.982 149.934 162.267 149.934 161.27V120.58C149.934 119.583 150.129 118.89 150.519 118.5C150.952 118.067 151.689 117.85 152.729 117.85H160.399C161.655 117.85 162.565 118.283 163.129 119.15L173.789 135.79C174.482 136.83 175.089 137.87 175.609 138.91C176.129 139.95 176.519 140.817 176.779 141.51C177.082 142.203 177.472 143.178 177.949 144.435C178.425 145.692 178.859 146.775 179.249 147.685H179.769C178.642 144.002 177.862 141.12 177.429 139.04C177.039 136.96 176.844 134.36 176.844 131.24V120.58C176.844 119.583 177.039 118.89 177.429 118.5C177.819 118.067 178.534 117.85 179.574 117.85H186.204ZM231.586 137.48C232.626 137.48 233.341 137.697 233.731 138.13C234.121 138.52 234.316 139.235 234.316 140.275V148.855C234.316 153.578 232.54 157.457 228.986 160.49C225.476 163.48 220.601 164.975 214.361 164.975C207.991 164.975 203.051 163.372 199.541 160.165C196.075 156.915 194.341 152.452 194.341 146.775V135.075C194.341 129.398 196.075 124.957 199.541 121.75C203.051 118.5 207.991 116.875 214.361 116.875C224.155 116.875 230.481 120.667 233.341 128.25C233.688 129.203 233.71 129.962 233.406 130.525C233.146 131.045 232.54 131.457 231.586 131.76L224.631 134.23C223.635 134.577 222.876 134.62 222.356 134.36C221.88 134.1 221.468 133.472 221.121 132.475C219.995 129.658 217.741 128.25 214.361 128.25C211.848 128.25 210.028 128.813 208.901 129.94C207.775 131.023 207.211 132.713 207.211 135.01V146.84C207.211 149.137 207.775 150.848 208.901 151.975C210.028 153.058 211.848 153.6 214.361 153.6C216.528 153.6 218.24 153.21 219.496 152.43C220.753 151.65 221.381 150.567 221.381 149.18V147.88H215.141C214.145 147.88 213.43 147.685 212.996 147.295C212.606 146.905 212.411 146.19 212.411 145.15V140.275C212.411 139.235 212.606 138.52 212.996 138.13C213.43 137.697 214.145 137.48 215.141 137.48H231.586ZM238.331 135.075C238.331 129.398 240.064 124.957 243.531 121.75C247.041 118.5 251.981 116.875 258.351 116.875C264.677 116.875 269.574 118.5 273.041 121.75C276.551 124.957 278.306 129.398 278.306 135.075V146.775C278.306 152.452 276.551 156.915 273.041 160.165C269.574 163.372 264.677 164.975 258.351 164.975C251.981 164.975 247.041 163.372 243.531 160.165C240.064 156.915 238.331 152.452 238.331 146.775V135.075ZM265.436 134.49C265.436 132.453 264.807 130.915 263.551 129.875C262.337 128.792 260.604 128.25 258.351 128.25C256.054 128.25 254.277 128.792 253.021 129.875C251.807 130.915 251.201 132.453 251.201 134.49V147.36C251.201 149.397 251.807 150.957 253.021 152.04C254.277 153.08 256.054 153.6 258.351 153.6C260.604 153.6 262.337 153.08 263.551 152.04C264.807 150.957 265.436 149.397 265.436 147.36V134.49Z" fill="#F35F5F"/>
<path d="M339.253 106H364.436V221.343C351.537 223.781 342.041 224.74 331.767 224.74C301.01 224.708 285 210.977 285 184.604C285 159.194 301.983 142.703 328.299 142.703C332.383 142.703 335.494 143.024 339.253 143.987V106ZM340.136 164.773C337.186 163.81 334.756 163.489 331.645 163.489C318.908 163.489 311.551 171.253 311.551 184.86C311.551 198.107 318.584 205.422 331.483 205.422C334.27 205.422 336.538 205.265 340.136 204.784V164.773V164.773Z" fill="#2BA977"/>
<path d="M405.616 145.8V203.55C405.616 223.439 404.125 233.003 399.75 241.248C395.666 249.176 390.286 254.175 379.17 259.696L355.802 248.692C366.919 243.529 372.299 238.967 375.734 232.005C379.331 224.886 380.466 216.64 380.466 194.952V145.8H405.616V145.8ZM377.928 106H403.11V131.57H377.928V106Z" fill="#2BA977"/>
<path d="M409.975 257.977V258.425C409.975 258.662 409.78 258.854 409.54 258.854H408.185C408.111 258.854 408.051 258.916 408.055 258.99C408.058 259.06 408.12 259.113 408.189 259.113H408.509C408.582 259.113 408.64 259.171 408.64 259.242V259.565C408.64 259.803 408.445 259.997 408.203 259.997H407.823C407.582 259.997 407.386 259.803 407.386 259.565V258.427H406.466C406.226 258.427 406.031 258.235 406.031 257.998V257.617C406.031 257.38 406.226 257.188 406.466 257.188H407.386V257.188H407.783C407.857 257.188 407.917 257.127 407.913 257.053C407.91 256.983 407.849 256.93 407.779 256.93H407.517C407.445 256.93 407.386 256.872 407.386 256.8V256.478C407.386 256.239 407.582 256.046 407.823 256.046H408.203C408.444 256.046 408.64 256.238 408.64 256.476V257.548H409.54C409.78 257.548 409.975 257.741 409.975 257.977Z" fill="#FFDA44"/>
<path d="M408.518 259.419C408.518 259.491 408.459 259.548 408.387 259.548C408.315 259.548 408.256 259.491 408.256 259.419C408.256 259.348 408.315 259.29 408.387 259.29C408.459 259.29 408.518 259.348 408.518 259.419Z" fill="#4895FF"/>
<path d="M408.518 259.419C408.518 259.491 408.459 259.548 408.387 259.548V259.29C408.459 259.29 408.518 259.348 408.518 259.419Z" fill="#2682FF"/>
<path d="M408.64 256.476V257.548V257.725C408.64 257.868 408.523 257.984 408.379 257.984H407.517C407.445 257.984 407.386 258.042 407.386 258.113V258.427H406.466C406.226 258.427 406.031 258.235 406.031 257.998V257.617C406.031 257.38 406.226 257.188 406.466 257.188H407.386V257.188H407.783C407.857 257.188 407.917 257.127 407.913 257.053C407.91 256.983 407.849 256.93 407.779 256.93H407.517C407.445 256.93 407.386 256.872 407.386 256.8V256.478C407.386 256.239 407.582 256.046 407.823 256.046H408.203C408.444 256.046 408.64 256.238 408.64 256.476Z" fill="#4895FF"/>
<path d="M407.8 256.654C407.8 256.725 407.742 256.783 407.669 256.783C407.597 256.783 407.539 256.725 407.539 256.654C407.539 256.582 407.597 256.524 407.669 256.524C407.742 256.524 407.8 256.582 407.8 256.654Z" fill="#FFDA44"/>
<path d="M407.8 256.654C407.8 256.725 407.742 256.783 407.669 256.783V256.524C407.742 256.524 407.8 256.582 407.8 256.654Z" fill="#FFCD00"/>
</svg>
